<svg width="110" height="31" viewBox="0 0 110 31" fill="none" xmlns="http://www.w3.org/2000/svg">
<rect y="5" width="16" height="20" fill="#AFFF5A"/>
<path d="M29.88 16.108V13.144H28.892V10.18H26.916V13.144H25.928V16.108H24.94V17.096H30.868V16.108H29.88ZM20.988 25V22.036H21.976V19.072H22.964V16.108H23.952V13.144H24.94V10.18H25.928V8.204H26.916V6.228H28.892V8.204H29.88V10.18H30.868V13.144H31.856V16.108H32.844V19.072H33.832V22.036H34.82V25H32.844V22.036H31.856V19.072H23.952V22.036H22.964V25H20.988ZM36.796 25V23.024H39.76V8.204H36.796V6.228H44.7V8.204H41.736V23.024H44.7V25H36.796ZM46.8913 25V6.228H55.7833V7.216H57.7593V8.204H58.7473V9.192H59.7353V13.144H58.7473V14.132H57.7593V15.12H55.7833V14.132H56.7713V13.144H57.7593V10.18H56.7713V9.192H55.7833V8.204H48.8673V15.12H55.7833V16.108H57.7593V17.096H58.7473V18.084H59.7353V25H57.7593V19.072H56.7713V18.084H55.7833V17.096H48.8673V25H46.8913ZM62.9199 25V6.228H71.8119V7.216H73.7879V9.192H74.7759V12.156H73.7879V14.132H71.8119V12.156H72.7999V9.192H71.8119V8.204H64.8959V14.132H71.8119V15.12H73.7879V16.108H74.7759V17.096H75.7639V22.036H74.7759V23.024H73.7879V24.012H71.8119V25H62.9199ZM64.8959 16.108V23.024H71.8119V22.036H72.7999V21.048H73.7879V18.084H72.7999V17.096H71.8119V16.108H64.8959ZM86.8525 16.108V13.144H85.8645V10.18H83.8885V13.144H82.9005V16.108H81.9125V17.096H87.8405V16.108H86.8525ZM77.9605 25V22.036H78.9485V19.072H79.9365V16.108H80.9245V13.144H81.9125V10.18H82.9005V8.204H83.8885V6.228H85.8645V8.204H86.8525V10.18H87.8405V13.144H88.8285V16.108H89.8165V19.072H90.8045V22.036H91.7925V25H89.8165V22.036H88.8285V19.072H80.9245V22.036H79.9365V25H77.9605ZM94.9749 23.024V21.048H93.9869V19.072H92.9989V12.156H93.9869V10.18H94.9749V8.204H95.9629V7.216H97.9389V6.228H104.855V7.216H106.831V8.204H107.819V10.18H108.807V12.156H106.831V10.18H105.843V9.192H104.855V8.204H97.9389V9.192H96.9509V10.18H95.9629V12.156H94.9749V19.072H95.9629V21.048H96.9509V22.036H97.9389V23.024H105.843V24.012H104.855V25H97.9389V24.012H95.9629V23.024H94.9749ZM100.903 18.084V16.108H108.807V25H106.831V23.024H105.843V22.036H106.831V18.084H100.903Z" fill="black"/>
</svg>
