<svg width="128" height="128" viewBox="0 0 128 128" fill="none" xmlns="http://www.w3.org/2000/svg">
<path d="M63.414 56.22L58.846 59.94H61.829V72.036L63.414 70.76V56.22ZM64.73 69.68L69.379 65.865H66.312V54.045L64.731 55.147L64.73 69.68ZM122.264 58.392C122.791 58.666 123.17 58.8977 123.402 59.087L125.045 55.959C124.224 55.4537 123.234 55.0007 122.075 54.6C120.937 54.2 119.705 54 118.378 54C117.114 54 115.945 54.2107 114.871 54.632C113.818 55.0533 112.975 55.6747 112.343 56.496C111.732 57.3173 111.427 58.339 111.427 59.561C111.427 60.931 111.859 61.9843 112.722 62.721C113.607 63.437 114.955 64.027 116.767 64.491C118.22 64.869 119.389 65.2163 120.274 65.533C121.18 65.8283 121.633 66.3233 121.633 67.018C121.633 68.05 120.664 68.566 118.726 68.566C117.757 68.566 116.84 68.4503 115.976 68.219C115.19 68.0165 114.427 67.7305 113.702 67.366C113.07 67.0287 112.617 66.723 112.342 66.449L110.637 69.767C111.732 70.4623 112.985 71.01 114.397 71.41C115.809 71.81 117.231 72.01 118.662 72.01C119.905 72.01 121.064 71.8417 122.138 71.505C123.212 71.147 124.076 70.5783 124.729 69.799C125.403 68.999 125.74 67.9457 125.74 66.639C125.74 65.565 125.487 64.7013 124.982 64.048C124.497 63.3747 123.792 62.8373 122.865 62.436C121.959 62.036 120.885 61.678 119.642 61.362C118.231 61.0253 117.156 60.72 116.419 60.446C115.703 60.1727 115.345 59.7093 115.345 59.056C115.345 57.9393 116.335 57.381 118.315 57.381C119.052 57.381 119.768 57.4863 120.463 57.697C121.159 57.887 121.759 58.1187 122.264 58.392ZM89.013 71.916C87.623 71.916 86.359 71.6737 85.221 71.189C84.1209 70.7089 83.1229 70.0225 82.281 69.167C81.4744 68.324 80.8318 67.3382 80.386 66.26C79.9496 65.2081 79.724 64.0808 79.722 62.942C79.722 61.7833 79.954 60.6667 80.418 59.592C80.8772 58.5242 81.5433 57.5579 82.378 56.749C83.2297 55.8999 84.238 55.2241 85.347 54.759C86.4843 54.2743 87.727 54.032 89.075 54.032C90.465 54.032 91.7293 54.2953 92.868 54.822C93.9667 55.3012 94.9559 55.9998 95.775 56.875C96.5859 57.7027 97.2294 58.6793 97.67 59.751C98.1047 60.7922 98.3304 61.9087 98.334 63.037C98.3346 64.1895 98.098 65.3298 97.639 66.387C97.1689 67.4487 96.5041 68.413 95.679 69.23C94.8354 70.0666 93.8376 70.7318 92.741 71.189C91.6037 71.6737 90.361 71.916 89.013 71.916ZM83.577 62.974C83.577 63.9213 83.7987 64.827 84.242 65.691C84.6755 66.5248 85.3173 67.2324 86.105 67.745C86.927 68.2717 87.9067 68.535 89.044 68.535C90.2027 68.535 91.182 68.261 91.982 67.713C92.7595 67.1707 93.3895 66.4431 93.815 65.596C94.227 64.7717 94.4436 63.8635 94.448 62.942C94.448 61.994 94.2267 61.0987 93.784 60.256C93.3488 59.421 92.6926 58.7215 91.887 58.234C91.087 57.7073 90.129 57.444 89.013 57.444C87.8537 57.444 86.8633 57.718 86.042 58.266C85.2613 58.7911 84.6298 59.5094 84.209 60.351C83.7951 61.1635 83.5786 62.0621 83.577 62.974ZM2 71.79L9.71 54.126H12.838L20.516 71.789H16.472L14.702 67.65H7.846L6.076 71.79H2ZM11.29 58.771L8.699 64.332H13.786L11.29 58.771ZM35.455 54.126L40.321 60.383L45.187 54.126H49.326L42.343 63.068L49.105 71.789H44.965L40.321 65.786L35.707 71.789H31.505L38.298 63.069L31.284 54.126H35.455Z" fill="#3C3B3B"/>
</svg>
