<svg width="128" height="128" viewBox="0 0 128 128" fill="none" xmlns="http://www.w3.org/2000/svg">
<path d="M0 51.0981V76.8601H4.422V56.6041L20.73 76.8701H48.424V72.7571H30.553V65.9561H44.923V61.8431H30.553V55.2221H48.423V51.1061H26.13V55.2221H26.132V76.6801L5.527 51.0981H0ZM85.09 51.1081V55.2231H94.12V76.8731H98.54V55.2231H107.387V51.1071H85.09V51.1081ZM53.768 51.1191L74.498 76.8831H80.301L69.936 64.0101L80.286 51.1391L74.496 51.1491L67.037 60.4101L59.557 51.1201H53.767L53.768 51.1191ZM123.926 65.7171C123.165 65.7171 122.481 65.8451 121.875 66.1111C121.272 66.3745 120.797 66.7438 120.449 67.2191C120.099 67.6958 119.924 68.2505 119.924 68.8831C119.923 69.6525 120.183 70.2681 120.704 70.7301C121.222 71.1941 121.93 71.5395 122.828 71.7661L124.068 72.0781C124.418 72.1629 124.761 72.2746 125.094 72.4121C125.353 72.514 125.586 72.6714 125.777 72.8731C125.943 73.0667 126.032 73.3151 126.025 73.5701C126.028 73.8627 125.927 74.1468 125.742 74.3731C125.541 74.616 125.278 74.8007 124.982 74.9081C124.62 75.0421 124.236 75.1072 123.85 75.1001C123.47 75.1062 123.092 75.0446 122.734 74.9181C122.422 74.8058 122.145 74.6138 121.93 74.3611C121.718 74.0951 121.595 73.7696 121.578 73.4301H119.637C119.664 74.1415 119.852 74.7455 120.203 75.2421C120.729 75.9871 121.039 76.1151 121.663 76.3721C122.283 76.6321 123.02 76.7621 123.865 76.7621C124.74 76.7608 125.484 76.6275 126.098 76.3621C126.715 76.0921 127.186 75.7195 127.512 75.2441C127.839 74.7651 128 74.2161 128 73.5861C127.999 73.1195 127.911 72.7138 127.734 72.3691C127.56 72.0255 127.315 71.7231 127.014 71.4821C126.702 71.2319 126.356 71.0275 125.986 70.8751C125.602 70.7116 125.203 70.5827 124.796 70.4901L123.776 70.2401C123.551 70.1862 123.328 70.1211 123.109 70.0451C122.899 69.9741 122.699 69.8784 122.512 69.7601C122.338 69.6562 122.191 69.5131 122.082 69.3421C121.973 69.1686 121.918 68.9668 121.924 68.7621C121.924 68.5038 122.008 68.2523 122.162 68.0451C122.318 67.8351 122.547 67.6691 122.84 67.5451C123.177 67.4164 123.535 67.3539 123.896 67.3611C124.481 67.3605 124.958 67.4881 125.326 67.7441C125.504 67.8639 125.652 68.0223 125.76 68.2077C125.868 68.393 125.933 68.6003 125.949 68.8141H127.849C127.847 68.2385 127.668 67.6773 127.336 67.2071C127.003 66.7405 126.544 66.3751 125.959 66.1111C125.376 65.8471 124.698 65.7158 123.926 65.7171ZM115.928 65.8611V73.4111C115.925 73.7891 115.866 74.1071 115.752 74.3651C115.649 74.6084 115.472 74.8128 115.246 74.9491C115.027 75.0825 114.759 75.1491 114.443 75.1491C114.154 75.1491 113.897 75.0925 113.672 74.9791C113.455 74.8726 113.274 74.7056 113.15 74.4981C113.02 74.2695 112.953 74.0109 112.955 73.7481H110.992C110.991 74.4095 111.14 74.9615 111.439 75.4041C111.737 75.8481 112.158 76.1961 112.65 76.4061C113.193 76.6392 113.779 76.7551 114.37 76.7461C115.068 76.7461 115.68 76.6128 116.205 76.3461C116.719 76.0907 117.149 75.6916 117.441 75.1971C117.734 74.6991 117.884 74.1035 117.889 73.4101V65.8611H115.928ZM62.596 65.9201L53.752 76.9021H59.557L65.494 69.5221L62.596 65.9201ZM108.381 74.4181C108.057 74.4181 107.78 74.5301 107.551 74.7541C107.44 74.8567 107.352 74.9817 107.292 75.1208C107.233 75.2599 107.204 75.41 107.207 75.5611C107.203 75.7141 107.232 75.8661 107.291 76.0071C107.35 76.1481 107.439 76.2749 107.551 76.3791C107.78 76.6038 108.057 76.7158 108.381 76.7151C108.583 76.7168 108.782 76.6629 108.955 76.5591C109.13 76.4587 109.278 76.3156 109.383 76.1431C109.492 75.9685 109.549 75.7668 109.549 75.5611C109.549 75.4095 109.517 75.2595 109.456 75.1206C109.395 74.9818 109.306 74.857 109.195 74.7541C109.089 74.6465 108.962 74.5613 108.822 74.5036C108.682 74.4459 108.532 74.4168 108.381 74.4181Z" fill="#3C3B3B"/>
</svg>
