<svg width="81" height="81" viewBox="0 0 81 81" fill="none" xmlns="http://www.w3.org/2000/svg">
<path d="M43.4936 4.59662C42.5862 4.06307 41.5527 3.78174 40.5 3.78174C39.4473 3.78174 38.4138 4.06307 37.5064 4.59662L11.3501 19.9799C10.463 20.5015 9.72762 21.2458 9.21673 22.1391C8.70585 23.0324 8.43724 24.0437 8.4375 25.0727V55.927C8.4375 58.0195 9.5445 59.9568 11.3501 61.0165L20.2028 66.2241C24.7016 68.8769 30.375 65.6301 30.375 60.4124V26.146H23.625V60.409L15.1875 55.4444V25.5554L40.5 10.6649L65.8125 25.5554V55.4444L40.5 70.3349L34.533 66.8249L31.1108 72.64L37.5064 76.4031C38.4138 76.9367 39.4473 77.218 40.5 77.218C41.5527 77.218 42.5862 76.9367 43.4936 76.4031L69.6499 61.0165C70.5365 60.4952 71.2716 59.7514 71.7824 58.8588C72.2933 57.9661 72.5622 56.9555 72.5625 55.927V25.0727C72.5622 24.0442 72.2933 23.0337 71.7824 22.141C71.2716 21.2483 70.5365 20.5046 69.6499 19.9832L43.4936 4.59662ZM47.25 25.3124C42.6499 25.3124 39.3896 26.497 37.2938 28.5861C35.7111 30.1602 34.8167 32.2973 34.8064 34.5295C34.8064 36.4026 35.3363 38.1002 36.4331 39.5042C37.4895 40.8542 38.88 41.6946 40.2131 42.238C42.6431 43.2404 45.6806 43.5677 48.1241 43.8276L48.4177 43.8614C51.2224 44.1651 53.325 44.425 54.7627 45.0257C55.4141 45.2957 55.6808 45.5455 55.7921 45.6906C55.863 45.7851 56.0014 45.9944 56.0014 46.5681C56.0014 47.4591 55.6976 48.0329 54.7425 48.5762C53.5714 49.2411 51.5025 49.7474 48.3874 49.7474C45.2992 49.7474 43.146 49.1736 41.9141 48.3231C40.959 47.6616 40.2536 46.6457 40.4393 44.4419L33.7129 43.8782C33.3484 48.2286 34.9245 51.6947 38.0734 53.875C40.9455 55.8662 44.7221 56.4974 48.3874 56.4974C52.0222 56.4974 55.4479 55.9405 58.0837 54.4386C60.939 52.8186 62.7514 50.1119 62.7514 46.5681C62.7514 44.6882 62.2282 42.9872 61.1415 41.5731C60.0952 40.2096 58.7047 39.3591 57.3682 38.7989C54.9112 37.7695 51.8333 37.4387 49.3763 37.1755L49.14 37.1485C46.3286 36.8447 44.226 36.5916 42.7781 35.9976C42.1234 35.7276 41.8567 35.4846 41.7555 35.3496C41.688 35.2686 41.5564 35.0796 41.5564 34.5295C41.5564 34.2696 41.634 33.7904 42.0626 33.3651C42.4744 32.9534 43.7468 32.0624 47.25 32.0624C50.5913 32.0624 52.5386 32.4167 53.6524 33.0749C54.378 33.5069 55.1644 34.3 55.2724 36.8987L62.0156 36.6287C61.8469 32.4235 60.3079 29.1767 57.0949 27.2732C54.27 25.5925 50.6587 25.3124 47.25 25.3124Z" fill="#3C3B3B"/>
</svg>
