<svg width="81" height="81" viewBox="0 0 81 81" fill="none" xmlns="http://www.w3.org/2000/svg">
<path d="M37.0913 6.66227C46.9463 0.38477 60.5712 3.31427 67.4697 13.1895C69.107 15.4811 70.2704 18.0765 70.8916 20.8235C71.5129 23.5705 71.5796 26.4139 71.0877 29.187C70.6091 31.835 69.5988 34.3586 68.1177 36.6053C70.2777 40.7261 71.0033 45.4478 70.1765 50.0276C69.6893 52.7461 68.6401 55.3329 67.096 57.6227C65.5519 59.9124 63.5468 61.8547 61.2091 63.3252L43.9055 74.3546C34.0505 80.6321 20.4256 77.706 13.5237 67.8308C11.8872 65.5383 10.7247 62.9421 10.1046 60.1945C9.48452 57.4469 9.41919 54.6031 9.91247 51.8299C10.3911 49.1819 11.4014 46.6583 12.8825 44.4116C10.722 40.2912 9.99643 35.5682 10.8203 30.9893C11.3079 28.2705 12.3576 25.6835 13.9023 23.3938C15.4471 21.104 17.4528 19.1619 19.7911 17.6918L37.0913 6.66227ZM27.1655 68.3438C29.8047 69.3225 32.6768 69.4643 35.4005 68.7589C36.6458 68.4248 37.8305 67.905 38.9172 67.2132L56.2242 56.187C57.6298 55.3019 58.8354 54.1334 59.7641 52.7562C60.6927 51.379 61.3239 49.8232 61.6175 48.1883C61.913 46.5208 61.8727 44.8111 61.4988 43.1594C61.125 41.5077 60.4253 39.9473 59.4406 38.5695C57.8379 36.2576 55.564 34.4935 52.9263 33.5157C50.2886 32.5379 47.4143 32.3935 44.6918 33.102C43.4465 33.4361 42.2618 33.9559 41.1751 34.6478L34.5702 38.853C34.2435 39.0627 33.8859 39.2199 33.5105 39.3188C32.9787 39.4564 32.4249 39.4869 31.8813 39.4085C31.3376 39.33 30.815 39.1442 30.3439 38.8618C29.8727 38.5794 29.4625 38.2062 29.137 37.7637C28.8115 37.3213 28.5773 36.8185 28.448 36.2846C28.3322 35.7861 28.3207 35.2691 28.4142 34.7659C28.5032 34.2746 28.6931 33.8071 28.972 33.3929C29.2508 32.9787 29.6125 32.6268 30.0342 32.3595L47.3446 21.33C47.6713 21.1203 48.0289 20.9632 48.4043 20.8643C49.2251 20.6527 50.091 20.6974 50.8856 20.9924C51.6802 21.2875 52.3654 21.8187 52.8492 22.5146C53.3791 23.2639 53.6255 24.1751 53.5478 25.0864L53.4871 25.7276L54.1317 25.9234C56.5639 26.6576 58.8525 27.8025 60.8986 29.3085L61.7862 29.9565L62.1102 28.9609C62.2857 28.4321 62.4241 27.8944 62.5253 27.3476C62.8213 25.6804 62.7816 23.9708 62.4083 22.3191C62.0351 20.6675 61.336 19.1069 60.3518 17.7289C58.7494 15.4157 56.4751 13.6505 53.8367 12.6721C51.1983 11.6936 48.323 11.5491 45.5997 12.258C44.3548 12.5888 43.1685 13.1102 42.083 13.8038L24.7726 24.8299C23.3657 25.7143 22.1588 26.8825 21.229 28.2598C20.2992 29.637 19.6669 31.1932 19.3726 32.8286C19.0771 34.4961 19.1174 36.2058 19.4912 37.8575C19.865 39.5092 20.5648 41.0696 21.5495 42.4474C23.1524 44.76 25.4268 46.5245 28.0652 47.5023C30.7036 48.4802 33.5787 48.6242 36.3016 47.9149C37.547 47.5808 38.7316 47.061 39.8183 46.3725L46.4198 42.1605C46.7528 41.9513 47.1072 41.7971 47.483 41.6981C48.0147 41.5619 48.5681 41.5325 49.1113 41.6115C49.6545 41.6906 50.1766 41.8766 50.6474 42.1588C51.1182 42.441 51.5284 42.8137 51.8542 43.2554C52.18 43.6972 52.4149 44.1991 52.5455 44.7323C52.6602 45.2284 52.6703 45.7448 52.5826 46.2476C52.4928 46.7395 52.3018 47.2074 52.0218 47.6216C51.7418 48.0358 51.3788 48.3874 50.9558 48.654L33.6522 59.6869C33.3253 59.8954 32.9677 60.0514 32.5925 60.1493C31.772 60.3612 30.9064 60.317 30.1118 60.0226C29.3173 59.7282 28.6318 59.1976 28.1476 58.5023C27.6185 57.7543 27.371 56.8434 27.449 55.9305L27.5063 55.2893L26.8651 55.0935C24.4329 54.3593 22.1443 53.2144 20.0982 51.7084L19.2106 51.0604L18.8866 52.056C18.7151 52.5847 18.5765 53.1235 18.4715 53.6693C18.1755 55.3365 18.2153 57.0461 18.5885 58.6978C18.9617 60.3495 19.6609 61.91 20.645 63.288C22.2472 65.6006 24.521 67.3653 27.1587 68.3438" fill="#3C3B3B"/>
</svg>
