<svg width="81" height="81" viewBox="0 0 81 81" fill="none" xmlns="http://www.w3.org/2000/svg">
<g clip-path="url(#clip0_1845_106)">
<path d="M37.388 0.141584C38.4545 -0.000166298 39.5818 0.0943337 40.6618 0.0943337C44.6477 0.0943337 48.5627 0.715334 52.3798 1.88983C57.2433 3.39452 61.7886 5.78098 65.7887 8.93008C70.7427 12.8251 74.7107 17.8313 77.3717 23.5438C82.2519 34.1751 82.2182 47.0676 77.2164 57.655C73.9832 64.5028 68.7958 70.2336 62.5149 74.4118C57.3917 77.8206 51.401 79.9097 45.3024 80.6488C37.5467 81.5905 29.1564 80.2135 22.1837 76.6393C9.08867 69.9231 0.185422 56.4096 0.00992186 41.6001C-0.0238281 38.7448 0.0200469 35.8727 0.583672 33.0478C1.50505 28.441 3.10817 23.9927 5.5213 19.9528C8.11629 15.5777 11.5123 11.7306 15.5315 8.61283C20.2701 4.9515 25.7447 2.35869 31.5797 1.01233C32.9786 0.712678 34.3925 0.487362 35.8153 0.337334L36.2642 0.283334L37.388 0.141584ZM23.8408 67.4661C22.0352 67.6585 20.135 67.9858 18.5859 68.9983C18.9335 69.0827 19.3352 68.9983 19.6997 68.9983C20.5704 68.9983 21.4547 68.9646 22.3254 69.0051C24.509 69.0996 26.7804 69.4472 28.8898 70.0277C31.5898 70.7702 33.9692 72.2215 36.5679 73.207C39.3118 74.2431 42.0422 74.5637 44.9514 74.5637C46.4195 74.5637 47.8742 74.5603 49.295 74.1587C48.5525 73.7638 47.4928 73.8381 46.6693 73.6727C44.8868 73.3337 43.1316 72.8644 41.4178 72.2687C40.1629 71.8046 38.9318 71.2786 37.7289 70.6926L36.9527 70.3281C35.8328 69.7914 34.6935 69.296 33.5372 68.8431C30.4828 67.6855 27.0977 67.1151 23.8408 67.4661ZM26.5678 59.7913C22.9937 59.7913 19.379 60.4225 16.1627 62.0425C15.3842 62.4407 14.6428 62.902 13.9385 63.4262C13.7259 63.5815 13.3479 63.784 13.2669 64.0607C13.1859 64.3375 13.4728 64.5703 13.6382 64.7492C14.4414 64.3206 15.2042 63.8683 16.0614 63.5443C21.5964 61.4383 28.3127 61.8805 33.8409 63.8076C36.5983 64.7695 39.1363 66.2106 41.8228 67.3378C44.8265 68.6001 47.891 69.4168 51.1142 69.8353C54.9178 70.3315 59.2547 69.9298 62.7309 68.2153C63.9527 67.6112 65.6503 66.6932 66.1667 65.3567C65.5288 65.4141 64.9517 65.6875 64.3475 65.8765C63.3841 66.1747 62.4064 66.4247 61.418 66.6257C58.0633 67.3007 54.4925 67.4357 51.1142 66.8282C47.9315 66.2545 44.9717 65.0968 42.0253 63.8818L41.6507 63.7266L40.898 63.4161L40.52 63.2608C39.0181 62.6257 37.4988 62.0326 35.9638 61.4822C32.96 60.436 29.747 59.7913 26.5678 59.7913ZM32.8318 4.90033C28.5455 5.84533 24.7082 7.68808 21.0125 10.0101C18.8627 11.3601 16.8107 12.7438 14.951 14.4752C12.1835 17.0571 10.0674 20.1958 8.22467 23.473C6.32455 26.848 5.10617 30.7832 4.51892 34.6003C3.93842 38.3466 3.84392 42.2852 4.50542 46.0348C5.3323 50.7193 6.90842 55.117 9.39242 59.1872C10.2294 58.7957 10.8234 57.9047 11.5153 57.3073C12.9125 56.0957 14.384 54.9752 15.9602 54.0066C16.5399 53.658 17.1485 53.3599 17.7793 53.1156C18.0155 53.0177 18.4104 52.93 18.5218 52.6701C18.7007 52.2516 18.3699 51.5226 18.3125 51.0906C18.137 49.851 18.0603 48.5994 18.083 47.3477C18.1643 43.6835 18.8602 40.059 20.1418 36.6253C21.1205 34.0603 22.6055 31.7316 24.374 29.6425C24.9714 28.9337 25.6059 28.2756 26.264 27.6175C26.6522 27.2327 27.1348 26.902 27.3778 26.4058C26.1088 26.4058 24.8432 26.7703 23.6383 27.1416C21.0429 27.9415 18.515 29.1261 16.3652 30.8001C15.383 31.5628 14.6642 32.5618 13.736 33.3651C13.4525 33.6115 12.9429 33.9388 12.548 33.7566C11.954 33.4765 12.0452 32.3053 11.9777 31.7653C11.7144 29.6998 12.4974 27.0842 13.4964 25.2921C15.0928 22.4166 18.0459 19.9596 21.5154 20.044C23.0139 20.0811 24.3268 20.6042 25.7578 20.9417C25.3967 20.4253 24.9073 20.0507 24.4449 19.6255C23.3188 18.571 22.0634 17.6637 20.7088 16.9255C20.1587 16.6386 19.568 16.4665 18.9909 16.2505C18.7007 16.1492 18.3328 16.0007 18.2248 15.6767C18.0223 15.0793 19.1023 14.5225 19.4972 14.2693C21.026 13.294 22.9059 12.4907 24.7487 12.4468C27.6309 12.376 30.4457 13.9723 31.6337 16.6926C32.0488 17.6511 32.1737 18.6602 32.2547 19.6795L32.2682 19.8718L32.2884 20.1587L32.2952 20.2566L32.312 20.449L32.3255 20.638C33.23 19.9022 33.8679 18.8155 34.7488 18.0257C36.8143 16.1796 39.6425 15.3595 42.3257 16.1897C44.773 16.9456 46.838 18.6098 48.0969 20.8405C48.4243 21.4243 49.3288 22.8486 48.674 23.4291C48.161 23.8813 47.513 23.5303 46.973 23.3413C46.5617 23.2089 46.1424 23.1029 45.7175 23.0241L45.488 22.9768L45.2552 22.933C43.7187 22.6551 42.1451 22.6528 40.6078 22.9262C39.656 23.095 38.7279 23.4325 37.7795 23.5742V23.7767C40.3715 23.797 42.8758 25.2752 44.1583 27.5196C44.6882 28.4477 44.9514 29.5108 45.1539 30.5571C45.407 31.8396 45.2282 33.2436 44.8772 34.4991C44.759 34.921 44.5464 35.6331 44.0435 35.731C43.6858 35.7985 43.3854 35.4441 43.1795 35.2078C42.6727 34.5783 42.1176 33.9892 41.519 33.4461C39.9292 32.0876 38.277 30.8037 36.5679 29.5986C35.6668 28.9573 34.6779 28.1136 33.6384 27.7221C33.932 28.4241 34.2155 29.0788 34.3134 29.8483C34.6104 32.0995 33.6654 34.2223 32.2479 35.9166C31.8262 36.4511 31.3437 36.9347 30.8102 37.3577C30.584 37.5265 30.3005 37.7425 30.0002 37.6952C29.0653 37.5467 28.9539 36.1326 28.8088 35.4103C28.3228 32.9601 28.5185 30.5267 29.1935 28.1271C28.5928 28.4308 28.1574 29.0957 27.7828 29.6458C26.9402 30.8371 26.2466 32.1269 25.7173 33.4866C23.6585 38.944 23.6788 45.3328 26.345 50.5843C26.642 51.1716 27.0909 51.0906 27.6782 51.0906H28.208C28.7398 51.0689 29.2725 51.0892 29.801 51.1513C30.071 51.1851 30.4524 51.1513 30.6684 51.3538C30.9283 51.5968 30.7899 52.0086 30.7292 52.3056C30.5604 53.1358 30.5064 53.8885 30.5064 54.7356C31.6134 54.5635 31.9205 52.7916 32.312 51.9006C32.7542 50.8948 33.2064 49.8857 33.6182 48.8631C33.8207 48.3636 34.0907 47.8033 34.0198 47.2465C33.9388 46.6221 33.4899 45.9606 33.176 45.424C32.5787 44.4182 31.9003 43.3787 31.4615 42.2886C31.1105 41.4178 31.4379 40.3311 32.4268 40.0206C32.9702 39.8518 33.554 40.186 33.9084 40.5808C34.6509 41.4043 35.1335 42.6362 35.6735 43.6048L39.8889 51.1918C40.2467 51.8353 40.6067 52.4766 40.9689 53.1156C41.114 53.3653 41.2592 53.7501 41.5528 53.8547C41.8127 53.9492 42.167 53.8142 42.4303 53.7636C43.0985 53.6286 43.7735 53.4835 44.4485 53.3586C45.2585 53.2135 46.4904 53.2405 47.0743 52.6093C46.2204 52.3393 45.2349 52.3562 44.3473 52.417C43.814 52.4507 43.2234 52.6431 42.7307 52.3326C42.0017 51.8702 41.5157 50.797 41.0702 50.0815C39.9699 48.3096 38.9338 46.5141 37.8808 44.7152L37.712 44.4317L37.3745 43.858C37.2058 43.5745 37.0382 43.2876 36.8717 42.9973C36.7468 42.7746 36.5612 42.481 36.74 42.2312C36.929 41.9747 37.3442 41.9612 37.7188 41.9578H37.7897C37.9382 41.9601 38.0698 41.9556 38.1845 41.9443C39.69 41.7216 41.2089 41.6009 42.7307 41.5832C42.6125 41.1715 42.275 40.7057 42.383 40.267C42.6227 39.2815 44.0368 38.9743 44.6983 39.6797C45.1404 40.1522 45.3969 40.807 45.6838 41.3807C46.0652 42.1333 46.4938 42.8657 46.9022 43.6082C47.6143 44.9008 48.3905 46.1631 49.1229 47.449L49.3085 47.7662L49.403 47.9248C49.7169 48.4513 50.0342 48.9846 50.2063 49.5752C47.6649 49.4571 45.758 46.5073 44.651 44.5161C44.5599 44.8367 44.705 45.1202 44.8198 45.4273C45.0515 46.0618 45.3463 46.6693 45.704 47.2498C46.217 48.0733 46.8043 48.9205 47.5805 49.5212C48.9575 50.5843 50.7699 50.5911 52.427 50.4763C53.4902 50.4021 54.8165 49.9195 55.8628 50.2468C56.909 50.5742 57.3275 51.7251 56.7065 52.6093C56.2408 53.2708 55.6232 53.5206 54.8503 53.6218C55.3971 54.7896 56.1092 55.873 56.6289 57.0643C56.8449 57.5571 57.0677 58.3131 57.584 58.5763C57.9283 58.7485 58.421 58.5865 58.7923 58.5763C58.421 57.5908 57.7224 56.7538 57.3782 55.7447C58.4244 55.7953 59.4369 56.3387 60.4089 56.6897C62.3225 57.3715 64.2159 58.1207 66.1025 58.8767L66.9733 59.2277C67.7495 59.5382 68.5326 59.8453 69.2987 60.1828C69.5788 60.3077 69.9669 60.598 70.2774 60.4191C70.5272 60.274 70.6925 59.9263 70.8478 59.6935C73.0207 56.3789 74.6107 52.7171 75.5492 48.8665C78.0804 38.7786 75.9069 27.6478 69.8285 19.2238C67.493 15.9838 64.5568 13.186 61.3168 10.8673C53.2134 5.06908 42.5822 2.74371 32.8318 4.90033ZM49.3963 55.2013C47.2498 55.7616 45.0358 56.2712 42.8319 56.5547C43.1222 57.5436 43.8309 58.5021 44.3507 59.3897C44.5498 59.7306 44.7624 60.1896 45.1607 60.3381C45.6062 60.5068 46.1462 60.2368 46.568 60.0951C46.3723 59.5618 46.0449 59.0826 45.7749 58.5763C45.6635 58.3738 45.4914 58.1275 45.5859 57.8811C45.7547 57.4187 46.4735 57.4423 46.8718 57.3647C47.918 57.1521 48.9542 56.8855 50.0038 56.6762C50.3885 56.5986 50.9285 56.3893 51.3167 56.5176C51.6069 56.6188 51.7824 56.8551 51.9478 57.1048L52.022 57.2162C52.1188 57.3737 52.2279 57.511 52.3494 57.628C52.7713 58.0093 53.4058 58.0667 53.9424 58.1747C53.615 57.4356 53.0683 56.791 52.7207 56.0485C52.5182 55.6198 52.3494 54.9853 51.9039 54.739C51.2897 54.3947 50.024 55.0393 49.3963 55.2013ZM35.8625 50.284C35.7613 51.5665 35.3664 52.6093 34.7488 53.7231C35.4575 53.8108 36.1764 53.8446 36.8717 54.0167C37.3914 54.145 37.8707 54.388 38.387 54.5331C38.1103 53.7771 37.6007 53.1055 37.2058 52.4068C36.8008 51.7048 36.443 50.8476 35.8625 50.2806" fill="#3C3B3B"/>
</g>
<defs>
<clipPath id="clip0_1845_106">
<rect width="81" height="81" fill="white"/>
</clipPath>
</defs>
</svg>
